<svg width="22" height="16" viewBox="0 0 22 16" fill="none" xmlns="http://www.w3.org/2000/svg">
<g clip-path="url(#clip0_113_2565)">
<path d="M4.78937 15.9212V7.72143L2.2643 5.39497L0 4.10394V14.4742C0 15.2748 0.644131 15.9212 1.43684 15.9212H4.78937Z" fill="#4285F4"/>
<path d="M16.2838 15.9213H19.6363C20.4314 15.9213 21.0732 15.2725 21.0732 14.4742V4.10406L18.5085 5.58278L16.2838 7.72147V15.9213Z" fill="#34A853"/>
<path d="M4.78936 7.72145L4.44577 4.51756L4.78936 1.45111L10.5366 5.79217L16.2838 1.45111L16.6681 4.352L16.2838 7.72145L10.5366 12.0625L4.78936 7.72145Z" fill="#EA4335"/>
<path d="M16.2838 1.45108V7.72143L21.0732 4.10393V2.17457C21.0732 0.385135 19.0449 -0.634969 17.6249 0.438192L16.2838 1.45108Z" fill="#FBBC04"/>
<path d="M0 4.10397L2.20272 5.76781L4.78937 7.72146V1.45112L3.44826 0.43823C2.02582 -0.635014 0 0.385173 0 2.17452V4.10389V4.10397Z" fill="#C5221F"/>
</g>
<defs>
<clipPath id="clip0_113_2565">
<rect width="21.0732" height="16" fill="white"/>
</clipPath>
</defs>
</svg>
