<svg width="92" height="120" viewBox="0 0 92 120" fill="none" xmlns="http://www.w3.org/2000/svg">
<path fill-rule="evenodd" clip-rule="evenodd" d="M70 8V60H28C26.4087 60 24.8826 59.3679 23.7574 58.2426C22.6321 57.1174 22 55.5913 22 54C22 52.4087 22.6321 50.8826 23.7574 49.7574C24.8826 48.6321 26.4087 48 28 48H66V0H26C21.6 0 18 3.6 18 8V56C18 60.4 21.6 64 26 64H74V8H70ZM32.0664 19.2343L38.8398 14.4929V8.5332C38.8398 8.16033 39.0472 7.81842 39.378 7.64622C39.7087 7.47403 40.1078 7.50014 40.4132 7.71397L47.6132 12.754C47.8806 12.9411 48.0398 13.2469 48.0398 13.5732V22.4186L52.661 25.7195C52.9238 25.9072 53.0798 26.2102 53.0798 26.5332V36.3333H56.4002C56.9525 36.3333 57.4002 36.781 57.4002 37.3333C57.4002 37.8856 56.9525 38.3333 56.4002 38.3333H32.6586C32.6524 38.3335 32.6461 38.3335 32.6399 38.3335C32.6336 38.3335 32.6274 38.3335 32.6212 38.3333H27.6002C27.0479 38.3333 26.6002 37.8856 26.6002 37.3333C26.6002 36.781 27.0479 36.3333 27.6002 36.3333H31.6399V20.0535C31.6399 19.7272 31.7991 19.4214 32.0664 19.2343ZM33.6399 36.3333V20.5742L38.8398 16.9343V36.3333H33.6399ZM40.8398 10.4539V14.9919C40.84 15.0057 40.84 15.0196 40.8398 15.0334V36.3332H51.0798V27.0478L46.4585 23.7469C46.1957 23.5592 46.0398 23.2562 46.0398 22.9332V14.0939L40.8398 10.4539Z" fill="white"/>
<path fill-rule="evenodd" clip-rule="evenodd" d="M10.0269 84.904C9.48294 85.928 9.21094 87.104 9.21094 88.432C9.21094 89.76 9.48294 90.952 10.0269 92.008C10.5869 93.048 11.3389 93.864 12.2829 94.456C13.2429 95.032 14.2989 95.32 15.4509 95.32C16.4749 95.32 17.3789 95.112 18.1629 94.696C18.9629 94.28 19.5869 93.752 20.0349 93.112V95.104H22.7949V77.344H20.0349V83.728C19.5389 83.104 18.8669 82.608 18.0189 82.24C17.1869 81.856 16.3389 81.664 15.4749 81.664C14.3069 81.664 13.2429 81.952 12.2829 82.528C11.3389 83.088 10.5869 83.88 10.0269 84.904ZM19.4589 86.104C19.8429 86.776 20.0349 87.568 20.0349 88.48C20.0349 89.392 19.8429 90.192 19.4589 90.88C19.0909 91.552 18.6029 92.064 17.9949 92.416C17.3869 92.768 16.7309 92.944 16.0269 92.944C15.3389 92.944 14.6829 92.768 14.0589 92.416C13.4509 92.048 12.9549 91.52 12.5709 90.832C12.2029 90.144 12.0189 89.344 12.0189 88.432C12.0189 87.52 12.2029 86.736 12.5709 86.08C12.9549 85.408 13.4509 84.904 14.0589 84.568C14.6669 84.216 15.3229 84.04 16.0269 84.04C16.7309 84.04 17.3869 84.216 17.9949 84.568C18.6029 84.92 19.0909 85.432 19.4589 86.104ZM26.5326 79.624C26.8686 79.96 27.2846 80.128 27.7806 80.128C28.2606 80.128 28.6686 79.96 29.0046 79.624C29.3406 79.288 29.5086 78.872 29.5086 78.376C29.5086 77.88 29.3406 77.464 29.0046 77.128C28.6686 76.792 28.2606 76.624 27.7806 76.624C27.2846 76.624 26.8686 76.792 26.5326 77.128C26.1966 77.464 26.0286 77.88 26.0286 78.376C26.0286 78.872 26.1966 79.288 26.5326 79.624ZM29.1246 95.104V81.88H26.3886V95.104H29.1246ZM32.6207 84.904C32.0767 85.928 31.8047 87.104 31.8047 88.432C31.8047 89.76 32.0767 90.952 32.6207 92.008C33.1807 93.048 33.9327 93.864 34.8767 94.456C35.8207 95.032 36.8607 95.32 37.9967 95.32C39.0207 95.32 39.9327 95.112 40.7327 94.696C41.5327 94.28 42.1647 93.76 42.6287 93.136V95.104H45.3887V81.88H42.6287V83.8C42.1647 83.192 41.5407 82.688 40.7567 82.288C39.9887 81.872 39.0847 81.664 38.0447 81.664C36.8927 81.664 35.8367 81.952 34.8767 82.528C33.9327 83.088 33.1807 83.88 32.6207 84.904ZM42.0527 86.104C42.4367 86.776 42.6287 87.568 42.6287 88.48C42.6287 89.392 42.4367 90.192 42.0527 90.88C41.6847 91.552 41.1967 92.064 40.5887 92.416C39.9807 92.768 39.3247 92.944 38.6207 92.944C37.9327 92.944 37.2767 92.768 36.6527 92.416C36.0447 92.048 35.5487 91.52 35.1647 90.832C34.7967 90.144 34.6127 89.344 34.6127 88.432C34.6127 87.52 34.7967 86.736 35.1647 86.08C35.5487 85.408 36.0447 84.904 36.6527 84.568C37.2607 84.216 37.9167 84.04 38.6207 84.04C39.3247 84.04 39.9807 84.216 40.5887 84.568C41.1967 84.92 41.6847 85.432 42.0527 86.104ZM36.2207 80.944L41.5247 78.328V76L36.2207 78.928V80.944ZM53.3023 82.24C52.6463 82.608 52.1183 83.128 51.7183 83.8V81.88H48.9823V95.104H51.7183V88.144C51.7183 86.8 51.9903 85.856 52.5343 85.312C53.0943 84.768 53.9103 84.496 54.9823 84.496H55.6783V81.664C54.7663 81.664 53.9743 81.856 53.3023 82.24ZM58.3372 79.624C58.6732 79.96 59.0892 80.128 59.5853 80.128C60.0653 80.128 60.4733 79.96 60.8092 79.624C61.1452 79.288 61.3133 78.872 61.3133 78.376C61.3133 77.88 61.1452 77.464 60.8092 77.128C60.4733 76.792 60.0653 76.624 59.5853 76.624C59.0892 76.624 58.6732 76.792 58.3372 77.128C58.0013 77.464 57.8332 77.88 57.8332 78.376C57.8332 78.872 58.0013 79.288 58.3372 79.624ZM60.9292 95.104V81.88H58.1932V95.104H60.9292ZM66.8734 94.48C67.8814 95.04 69.0094 95.32 70.2574 95.32C71.5214 95.32 72.6734 95.04 73.7134 94.48C74.7694 93.904 75.6014 93.096 76.2094 92.056C76.8174 91.016 77.1214 89.824 77.1214 88.48C77.1214 87.136 76.8254 85.944 76.2334 84.904C75.6414 83.864 74.8334 83.064 73.8094 82.504C72.7854 81.944 71.6414 81.664 70.3774 81.664C69.1134 81.664 67.9694 81.944 66.9454 82.504C65.9214 83.064 65.1134 83.864 64.5214 84.904C63.9294 85.944 63.6334 87.136 63.6334 88.48C63.6334 89.84 63.9214 91.04 64.4974 92.08C65.0734 93.104 65.8654 93.904 66.8734 94.48ZM72.2254 92.44C71.6174 92.776 70.9614 92.944 70.2574 92.944C69.1534 92.944 68.2334 92.56 67.4974 91.792C66.7774 91.008 66.4174 89.904 66.4174 88.48C66.4174 87.52 66.5934 86.712 66.9454 86.056C67.2974 85.384 67.7694 84.88 68.3614 84.544C68.9694 84.208 69.6254 84.04 70.3294 84.04C71.0334 84.04 71.6894 84.208 72.2974 84.544C72.9054 84.88 73.3934 85.384 73.7614 86.056C74.1294 86.712 74.3134 87.52 74.3134 88.48C74.3134 89.44 74.1214 90.256 73.7374 90.928C73.3534 91.6 72.8494 92.104 72.2254 92.44ZM0.816 108.904C0.272 109.928 0 111.104 0 112.432C0 113.76 0.272 114.952 0.816 116.008C1.376 117.048 2.128 117.864 3.072 118.456C4.032 119.032 5.088 119.32 6.24 119.32C7.264 119.32 8.168 119.112 8.952 118.696C9.752 118.28 10.376 117.752 10.824 117.112V119.104H13.584V101.344H10.824V107.728C10.328 107.104 9.656 106.608 8.808 106.24C7.976 105.856 7.128 105.664 6.264 105.664C5.096 105.664 4.032 105.952 3.072 106.528C2.128 107.088 1.376 107.88 0.816 108.904ZM10.248 110.104C10.632 110.776 10.824 111.568 10.824 112.48C10.824 113.392 10.632 114.192 10.248 114.88C9.88 115.552 9.392 116.064 8.784 116.416C8.176 116.768 7.52 116.944 6.816 116.944C6.128 116.944 5.472 116.768 4.848 116.416C4.24 116.048 3.744 115.52 3.36 114.832C2.992 114.144 2.808 113.344 2.808 112.432C2.808 111.52 2.992 110.736 3.36 110.08C3.744 109.408 4.24 108.904 4.848 108.568C5.456 108.216 6.112 108.04 6.816 108.04C7.52 108.04 8.176 108.216 8.784 108.568C9.392 108.92 9.88 109.432 10.248 110.104ZM29.2016 113.512C29.2656 113.112 29.2976 112.664 29.2976 112.168C29.2976 110.888 29.0256 109.76 28.4816 108.784C27.9376 107.792 27.1776 107.024 26.2016 106.48C25.2256 105.936 24.1136 105.664 22.8656 105.664C21.5696 105.664 20.4176 105.944 19.4096 106.504C18.4176 107.064 17.6416 107.864 17.0816 108.904C16.5376 109.928 16.2656 111.12 16.2656 112.48C16.2656 113.84 16.5456 115.04 17.1056 116.08C17.6816 117.104 18.4656 117.904 19.4576 118.48C20.4656 119.04 21.6016 119.32 22.8656 119.32C24.4176 119.32 25.7136 118.936 26.7536 118.168C27.8096 117.384 28.5376 116.384 28.9376 115.168H25.9856C25.3776 116.4 24.3376 117.016 22.8656 117.016C21.8416 117.016 20.9776 116.696 20.2736 116.056C19.5696 115.416 19.1776 114.568 19.0976 113.512H29.2016ZM25.3616 108.88C26.0656 109.488 26.4256 110.296 26.4416 111.304H19.1216C19.2496 110.28 19.6496 109.472 20.3216 108.88C20.9936 108.272 21.8016 107.968 22.7456 107.968C23.7856 107.968 24.6576 108.272 25.3616 108.88ZM40.5765 118.48C41.5845 119.04 42.7125 119.32 43.9605 119.32C45.2245 119.32 46.3765 119.04 47.4165 118.48C48.4725 117.904 49.3045 117.096 49.9125 116.056C50.5205 115.016 50.8245 113.824 50.8245 112.48C50.8245 111.136 50.5285 109.944 49.9365 108.904C49.3445 107.864 48.5365 107.064 47.5125 106.504C46.4885 105.944 45.3445 105.664 44.0805 105.664C42.8165 105.664 41.6725 105.944 40.6485 106.504C39.6245 107.064 38.8165 107.864 38.2245 108.904C37.6325 109.944 37.3365 111.136 37.3365 112.48C37.3365 113.84 37.6245 115.04 38.2005 116.08C38.7765 117.104 39.5685 117.904 40.5765 118.48ZM45.9285 116.44C45.3205 116.776 44.6645 116.944 43.9605 116.944C42.8565 116.944 41.9365 116.56 41.2005 115.792C40.4805 115.008 40.1205 113.904 40.1205 112.48C40.1205 111.52 40.2965 110.712 40.6485 110.056C41.0005 109.384 41.4725 108.88 42.0645 108.544C42.6725 108.208 43.3285 108.04 44.0325 108.04C44.7365 108.04 45.3925 108.208 46.0005 108.544C46.6085 108.88 47.0965 109.384 47.4645 110.056C47.8325 110.712 48.0165 111.52 48.0165 112.48C48.0165 113.44 47.8245 114.256 47.4405 114.928C47.0565 115.6 46.5525 116.104 45.9285 116.44ZM58.1612 106.288C57.3612 106.688 56.7292 107.208 56.2652 107.848V101.344H53.5292V119.104H56.2652V117.184C56.7292 117.808 57.3532 118.32 58.1372 118.72C58.9372 119.12 59.8492 119.32 60.8732 119.32C62.0252 119.32 63.0732 119.032 64.0172 118.456C64.9772 117.864 65.7292 117.048 66.2732 116.008C66.8172 114.952 67.0892 113.76 67.0892 112.432C67.0892 111.104 66.8172 109.928 66.2732 108.904C65.7292 107.864 64.9852 107.064 64.0412 106.504C63.0972 105.944 62.0412 105.664 60.8732 105.664C59.8812 105.664 58.9772 105.872 58.1612 106.288ZM63.7292 110.08C64.1132 110.736 64.3052 111.52 64.3052 112.432C64.3052 113.344 64.1132 114.144 63.7292 114.832C63.3612 115.52 62.8652 116.048 62.2412 116.416C61.6332 116.768 60.9772 116.944 60.2732 116.944C59.5852 116.944 58.9292 116.768 58.3052 116.416C57.6972 116.064 57.2012 115.552 56.8172 114.88C56.4492 114.192 56.2652 113.392 56.2652 112.48C56.2652 111.568 56.4492 110.776 56.8172 110.104C57.2012 109.432 57.6972 108.92 58.3052 108.568C58.9292 108.216 59.5852 108.04 60.2732 108.04C60.9772 108.04 61.6332 108.216 62.2412 108.568C62.8652 108.904 63.3612 109.408 63.7292 110.08ZM74.1148 106.24C73.4588 106.608 72.9308 107.128 72.5308 107.8V105.88H69.7948V119.104H72.5308V112.144C72.5308 110.8 72.8028 109.856 73.3468 109.312C73.9068 108.768 74.7228 108.496 75.7948 108.496H76.4908V105.664C75.5788 105.664 74.7868 105.856 74.1148 106.24ZM78.9098 108.904C78.3658 109.928 78.0938 111.104 78.0938 112.432C78.0938 113.76 78.3658 114.952 78.9098 116.008C79.4697 117.048 80.2217 117.864 81.1657 118.456C82.1097 119.032 83.1497 119.32 84.2858 119.32C85.3098 119.32 86.2217 119.112 87.0218 118.696C87.8217 118.28 88.4538 117.76 88.9177 117.136V119.104H91.6777V105.88H88.9177V107.8C88.4538 107.192 87.8298 106.688 87.0458 106.288C86.2777 105.872 85.3737 105.664 84.3337 105.664C83.1817 105.664 82.1257 105.952 81.1657 106.528C80.2217 107.088 79.4697 107.88 78.9098 108.904ZM88.3418 110.104C88.7258 110.776 88.9177 111.568 88.9177 112.48C88.9177 113.392 88.7258 114.192 88.3418 114.88C87.9737 115.552 87.4857 116.064 86.8777 116.416C86.2698 116.768 85.6137 116.944 84.9098 116.944C84.2217 116.944 83.5658 116.768 82.9417 116.416C82.3337 116.048 81.8378 115.52 81.4538 114.832C81.0857 114.144 80.9017 113.344 80.9017 112.432C80.9017 111.52 81.0857 110.736 81.4538 110.08C81.8378 109.408 82.3337 108.904 82.9417 108.568C83.5498 108.216 84.2057 108.04 84.9098 108.04C85.6137 108.04 86.2698 108.216 86.8777 108.568C87.4857 108.92 87.9737 109.432 88.3418 110.104Z" fill="white"/>
</svg>
